<?xml version="1.0" encoding="UTF-8" standalone="no"?>
<!DOCTYPE svg PUBLIC "-//W3C//DTD SVG 1.1//EN"
 "http://www.w3.org/Graphics/SVG/1.1/DTD/svg11.dtd">
<!-- Generated by graphviz version 2.42.4 (0)
 -->
<!-- Pages: 1 -->
<svg width="1049pt" height="332pt"
 viewBox="0.00 0.00 1049.33 332.00" xmlns="http://www.w3.org/2000/svg" xmlns:xlink="http://www.w3.org/1999/xlink">
<g id="graph0" class="graph" transform="scale(1 1) rotate(0) translate(4 328)">
<polygon fill="white" stroke="transparent" points="-4,4 -4,-328 1045.33,-328 1045.33,4 -4,4"/>
<!-- bitonic_sort -->
<g id="node1" class="node">
<title>bitonic_sort</title>
<ellipse fill="none" stroke="black" cx="271.34" cy="-162" rx="65.79" ry="18"/>
<text text-anchor="middle" x="271.34" y="-158.3" font-family="Times,serif" font-size="14.00">bitonic_sort</text>
</g>
<!-- sortnet_bitonicsort -->
<g id="node2" class="node">
<title>sortnet_bitonicsort</title>
<ellipse fill="none" stroke="black" cx="271.34" cy="-90" rx="98.58" ry="18"/>
<text text-anchor="middle" x="271.34" y="-86.3" font-family="Times,serif" font-size="14.00">sortnet_bitonicsort</text>
</g>
<!-- bitonic_sort&#45;&#45;sortnet_bitonicsort -->
<g id="edge1" class="edge">
<title>bitonic_sort&#45;&#45;sortnet_bitonicsort</title>
<path fill="none" stroke="black" d="M271.34,-143.7C271.34,-132.85 271.34,-118.92 271.34,-108.1"/>
</g>
<!-- Bitonic_Sorter -->
<g id="node3" class="node">
<title>Bitonic_Sorter</title>
<ellipse fill="none" stroke="black" cx="77.34" cy="-90" rx="77.19" ry="18"/>
<text text-anchor="middle" x="77.34" y="-86.3" font-family="Times,serif" font-size="14.00">Bitonic_Sorter</text>
</g>
<!-- bitonic_sort&#45;&#45;Bitonic_Sorter -->
<g id="edge2" class="edge">
<title>bitonic_sort&#45;&#45;Bitonic_Sorter</title>
<path fill="none" stroke="black" d="M233.01,-147.17C199.67,-135.14 151.5,-117.76 117.6,-105.52"/>
</g>
<!-- segment_selector -->
<g id="node4" class="node">
<title>segment_selector</title>
<ellipse fill="none" stroke="black" cx="362.34" cy="-234" rx="92.08" ry="18"/>
<text text-anchor="middle" x="362.34" y="-230.3" font-family="Times,serif" font-size="14.00">segment_selector</text>
</g>
<!-- segment_selector&#45;&#45;bitonic_sort -->
<g id="edge3" class="edge">
<title>segment_selector&#45;&#45;bitonic_sort</title>
<path fill="none" stroke="black" d="M340.78,-216.41C326.17,-205.17 306.95,-190.39 292.44,-179.23"/>
</g>
<!-- pat_unit -->
<g id="node5" class="node">
<title>pat_unit</title>
<ellipse fill="none" stroke="black" cx="571.34" cy="-90" rx="48.99" ry="18"/>
<text text-anchor="middle" x="571.34" y="-86.3" font-family="Times,serif" font-size="14.00">pat_unit</text>
</g>
<!-- hit_count -->
<g id="node6" class="node">
<title>hit_count</title>
<ellipse fill="none" stroke="black" cx="571.34" cy="-18" rx="53.89" ry="18"/>
<text text-anchor="middle" x="571.34" y="-14.3" font-family="Times,serif" font-size="14.00">hit_count</text>
</g>
<!-- pat_unit&#45;&#45;hit_count -->
<g id="edge4" class="edge">
<title>pat_unit&#45;&#45;hit_count</title>
<path fill="none" stroke="black" d="M571.34,-71.7C571.34,-60.85 571.34,-46.92 571.34,-36.1"/>
</g>
<!-- priority_encoder -->
<g id="node7" class="node">
<title>priority_encoder</title>
<ellipse fill="none" stroke="black" cx="403.34" cy="-18" rx="87.18" ry="18"/>
<text text-anchor="middle" x="403.34" y="-14.3" font-family="Times,serif" font-size="14.00">priority_encoder</text>
</g>
<!-- pat_unit&#45;&#45;priority_encoder -->
<g id="edge5" class="edge">
<title>pat_unit&#45;&#45;priority_encoder</title>
<path fill="none" stroke="black" d="M540.14,-76C511.86,-64.22 470.16,-46.84 440.24,-34.37"/>
</g>
<!-- pat_unit_mux -->
<g id="node8" class="node">
<title>pat_unit_mux</title>
<ellipse fill="none" stroke="black" cx="614.34" cy="-162" rx="73.39" ry="18"/>
<text text-anchor="middle" x="614.34" y="-158.3" font-family="Times,serif" font-size="14.00">pat_unit_mux</text>
</g>
<!-- pat_unit_mux&#45;&#45;pat_unit -->
<g id="edge6" class="edge">
<title>pat_unit_mux&#45;&#45;pat_unit</title>
<path fill="none" stroke="black" d="M603.93,-144.05C597.17,-133.05 588.4,-118.76 581.66,-107.79"/>
</g>
<!-- dav_to_phase -->
<g id="node9" class="node">
<title>dav_to_phase</title>
<ellipse fill="none" stroke="black" cx="715.34" cy="-90" rx="72.59" ry="18"/>
<text text-anchor="middle" x="715.34" y="-86.3" font-family="Times,serif" font-size="14.00">dav_to_phase</text>
</g>
<!-- pat_unit_mux&#45;&#45;dav_to_phase -->
<g id="edge7" class="edge">
<title>pat_unit_mux&#45;&#45;dav_to_phase</title>
<path fill="none" stroke="black" d="M637.77,-144.76C654.09,-133.46 675.76,-118.44 692.04,-107.15"/>
</g>
<!-- partition -->
<g id="node10" class="node">
<title>partition</title>
<ellipse fill="none" stroke="black" cx="614.34" cy="-234" rx="51.19" ry="18"/>
<text text-anchor="middle" x="614.34" y="-230.3" font-family="Times,serif" font-size="14.00">partition</text>
</g>
<!-- partition&#45;&#45;priority_encoder -->
<g id="edge10" class="edge">
<title>partition&#45;&#45;priority_encoder</title>
<path fill="none" stroke="black" d="M567.28,-226.6C515.32,-218.5 436.45,-202.81 417.34,-180 382.75,-138.71 392.17,-68.79 399.04,-36.41"/>
</g>
<!-- partition&#45;&#45;pat_unit_mux -->
<g id="edge9" class="edge">
<title>partition&#45;&#45;pat_unit_mux</title>
<path fill="none" stroke="black" d="M614.34,-215.7C614.34,-204.85 614.34,-190.92 614.34,-180.1"/>
</g>
<!-- partition&#45;&#45;dav_to_phase -->
<g id="edge8" class="edge">
<title>partition&#45;&#45;dav_to_phase</title>
<path fill="none" stroke="black" d="M646.51,-219.69C663.85,-210.91 684.12,-197.72 696.34,-180 711.23,-158.41 714.8,-127.4 715.47,-108.26"/>
</g>
<!-- deghost -->
<g id="node11" class="node">
<title>deghost</title>
<ellipse fill="none" stroke="black" cx="474.34" cy="-162" rx="48.19" ry="18"/>
<text text-anchor="middle" x="474.34" y="-158.3" font-family="Times,serif" font-size="14.00">deghost</text>
</g>
<!-- partition&#45;&#45;deghost -->
<g id="edge11" class="edge">
<title>partition&#45;&#45;deghost</title>
<path fill="none" stroke="black" d="M586.01,-218.83C561.56,-206.61 526.45,-189.05 502.15,-176.91"/>
</g>
<!-- chamber_pulse_extension -->
<g id="node12" class="node">
<title>chamber_pulse_extension</title>
<ellipse fill="none" stroke="black" cx="911.34" cy="-234" rx="129.98" ry="18"/>
<text text-anchor="middle" x="911.34" y="-230.3" font-family="Times,serif" font-size="14.00">chamber_pulse_extension</text>
</g>
<!-- pulse_extension -->
<g id="node13" class="node">
<title>pulse_extension</title>
<ellipse fill="none" stroke="black" cx="911.34" cy="-162" rx="85.29" ry="18"/>
<text text-anchor="middle" x="911.34" y="-158.3" font-family="Times,serif" font-size="14.00">pulse_extension</text>
</g>
<!-- chamber_pulse_extension&#45;&#45;pulse_extension -->
<g id="edge12" class="edge">
<title>chamber_pulse_extension&#45;&#45;pulse_extension</title>
<path fill="none" stroke="black" d="M911.34,-215.7C911.34,-204.85 911.34,-190.92 911.34,-180.1"/>
</g>
<!-- chamber -->
<g id="node14" class="node">
<title>chamber</title>
<ellipse fill="none" stroke="black" cx="683.34" cy="-306" rx="51.19" ry="18"/>
<text text-anchor="middle" x="683.34" y="-302.3" font-family="Times,serif" font-size="14.00">chamber</text>
</g>
<!-- chamber&#45;&#45;segment_selector -->
<g id="edge16" class="edge">
<title>chamber&#45;&#45;segment_selector</title>
<path fill="none" stroke="black" d="M641.05,-295.78C584.78,-283.51 485.03,-261.75 421.37,-247.87"/>
</g>
<!-- chamber&#45;&#45;dav_to_phase -->
<g id="edge13" class="edge">
<title>chamber&#45;&#45;dav_to_phase</title>
<path fill="none" stroke="black" d="M689.73,-287.93C698.26,-264.15 712.92,-219.52 718.34,-180 720.52,-164.15 718.8,-159.99 718.34,-144 718,-132.02 717.24,-118.54 716.56,-108.18"/>
</g>
<!-- chamber&#45;&#45;partition -->
<g id="edge15" class="edge">
<title>chamber&#45;&#45;partition</title>
<path fill="none" stroke="black" d="M667.34,-288.76C656.19,-277.46 641.39,-262.44 630.26,-251.15"/>
</g>
<!-- chamber&#45;&#45;chamber_pulse_extension -->
<g id="edge14" class="edge">
<title>chamber&#45;&#45;chamber_pulse_extension</title>
<path fill="none" stroke="black" d="M720.74,-293.52C758.76,-281.84 817.96,-263.67 860.28,-250.68"/>
</g>
</g>
</svg>
